REM DIRINDEX 1\2\6,1\2\7,1\2\8,1\2\9,1\3\10,1\3\11,1\4\12,1\4\13,1\4\14,1\5\15,1\5\16,1\5\17
REM DIRNAME folder01,folder02,folder03,folder04,folder05,folder06,folder07,folder08,folder09,folder10,folder11,folder12,folder13,folder14,folder15,folder16,folder17
TITLE ""
FILE "1900_2_sec13_1271_1287.mp3" MP3
  TRACK 01 AUDIO
    TITLE "0:"
    INDEX 01 00:00:00
  TRACK 02 AUDIO
    TITLE "13:cjc020_4679"
    INDEX 01 00:00:19
  TRACK 03 AUDIO
    TITLE "0:"
    INDEX 01 00:01:28
  TRACK 04 AUDIO
    TITLE "14:cjc020_4680"
    INDEX 01 00:01:30
  TRACK 05 AUDIO
    TITLE "0:"
    INDEX 01 00:03:57
  TRACK 06 AUDIO
    TITLE "13:cjc020_4681"
    INDEX 01 00:04:38
  TRACK 07 AUDIO
    TITLE "0:"
    INDEX 01 00:05:54
  TRACK 08 AUDIO
    TITLE "14:cjc020_4682"
    INDEX 01 00:05:57
  TRACK 09 AUDIO
    TITLE "0:"
    INDEX 01 00:07:74
  TRACK 10 AUDIO
    TITLE "13:cjc020_4683"
    INDEX 01 00:08:54
  TRACK 11 AUDIO
    TITLE "0:"
    INDEX 01 00:09:73
  TRACK 12 AUDIO
    TITLE "14:cjc020_4684"
    INDEX 01 00:10:02
  TRACK 13 AUDIO
    TITLE "0:"
    INDEX 01 00:11:17
  TRACK 14 AUDIO
    TITLE "13:cjc020_4685"
    INDEX 01 00:11:70
  TRACK 15 AUDIO
    TITLE "0:"
    INDEX 01 00:13:00
  TRACK 16 AUDIO
    TITLE "14:cjc020_4686"
    INDEX 01 00:13:06
  TRACK 17 AUDIO
    TITLE "0:"
    INDEX 01 00:16:42
  TRACK 18 AUDIO
    TITLE "13:cjc020_4687"
    INDEX 01 00:17:21
  TRACK 19 AUDIO
    TITLE "0:"
    INDEX 01 00:18:39
  TRACK 20 AUDIO
    TITLE "14:cjc020_4688"
    INDEX 01 00:18:42
  TRACK 21 AUDIO
    TITLE "0:"
    INDEX 01 00:19:58
  TRACK 22 AUDIO
    TITLE "13:cjc020_4689"
    INDEX 01 00:20:36
  TRACK 23 AUDIO
    TITLE "0:"
    INDEX 01 00:21:45
  TRACK 24 AUDIO
    TITLE "14:cjc020_4690"
    INDEX 01 00:21:51
  TRACK 25 AUDIO
    TITLE "0:"
    INDEX 01 00:24:39
  TRACK 26 AUDIO
    TITLE "13:cjc020_4691"
    INDEX 01 00:25:15
  TRACK 27 AUDIO
    TITLE "0:"
    INDEX 01 00:26:28
  TRACK 28 AUDIO
    TITLE "14:cjc020_4692"
    INDEX 01 00:26:32
  TRACK 29 AUDIO
    TITLE "0:"
    INDEX 01 00:28:29
  TRACK 30 AUDIO
    TITLE "13:cjc020_4693"
    INDEX 01 00:29:15
  TRACK 31 AUDIO
    TITLE "0:"
    INDEX 01 00:30:14
  TRACK 32 AUDIO
    TITLE "14:cjc020_4694"
    INDEX 01 00:30:16
  TRACK 33 AUDIO
    TITLE "0:"
    INDEX 01 00:31:33
  TRACK 34 AUDIO
    TITLE "12:cjc020_4695"
    INDEX 01 00:33:07
  TRACK 35 AUDIO
    TITLE "0:"
    INDEX 01 00:34:53
  TRACK 36 AUDIO
    TITLE "13:cjc020_4696"
    INDEX 01 00:35:51
  TRACK 37 AUDIO
    TITLE "0:"
    INDEX 01 00:36:70
  TRACK 38 AUDIO
    TITLE "14:cjc020_4697"
    INDEX 01 00:37:01
  TRACK 39 AUDIO
    TITLE "0:"
    INDEX 01 00:39:29
  TRACK 40 AUDIO
    TITLE "13:cjc020_4698"
    INDEX 01 00:40:05
  TRACK 41 AUDIO
    TITLE "0:"
    INDEX 01 00:41:10
  TRACK 42 AUDIO
    TITLE "14:cjc020_4699"
    INDEX 01 00:41:12
  TRACK 43 AUDIO
    TITLE "0:"
    INDEX 01 00:43:44
  TRACK 44 AUDIO
    TITLE "13:cjc020_4700"
    INDEX 01 00:44:30
  TRACK 45 AUDIO
    TITLE "0:"
    INDEX 01 00:45:26
  TRACK 46 AUDIO
    TITLE "14:cjc020_4701"
    INDEX 01 00:45:30
  TRACK 47 AUDIO
    TITLE "0:"
    INDEX 01 00:48:10
  TRACK 48 AUDIO
    TITLE "13:cjc020_4702"
    INDEX 01 00:48:61
  TRACK 49 AUDIO
    TITLE "0:"
    INDEX 01 00:50:07
  TRACK 50 AUDIO
    TITLE "14:cjc020_4703"
    INDEX 01 00:50:09
  TRACK 51 AUDIO
    TITLE "0:"
    INDEX 01 00:54:01
  TRACK 52 AUDIO
    TITLE "13:cjc020_4704"
    INDEX 01 00:54:56
  TRACK 53 AUDIO
    TITLE "0:"
    INDEX 01 00:56:02
  TRACK 54 AUDIO
    TITLE "14:cjc020_4705"
    INDEX 01 00:56:04
  TRACK 55 AUDIO
    TITLE "0:"
    INDEX 01 00:59:00
  TRACK 56 AUDIO
    TITLE "13:cjc020_4706"
    INDEX 01 00:59:53
  TRACK 57 AUDIO
    TITLE "0:"
    INDEX 01 01:00:72
  TRACK 58 AUDIO
    TITLE "14:cjc020_4707"
    INDEX 01 01:00:74
  TRACK 59 AUDIO
    TITLE "0:"
    INDEX 01 01:03:41
  TRACK 60 AUDIO
    TITLE "13:cjc020_4708"
    INDEX 01 01:04:19
  TRACK 61 AUDIO
    TITLE "0:"
    INDEX 01 01:05:40
  TRACK 62 AUDIO
    TITLE "14:cjc020_4709"
    INDEX 01 01:05:44
  TRACK 63 AUDIO
    TITLE "0:"
    INDEX 01 01:06:57
  TRACK 64 AUDIO
    TITLE "13:cjc020_4710"
    INDEX 01 01:07:35
  TRACK 65 AUDIO
    TITLE "0:"
    INDEX 01 01:08:35
  TRACK 66 AUDIO
    TITLE "14:cjc020_4711"
    INDEX 01 01:08:38
  TRACK 67 AUDIO
    TITLE "0:"
    INDEX 01 01:11:07
  TRACK 68 AUDIO
    TITLE "13:cjc020_4712"
    INDEX 01 01:11:60
  TRACK 69 AUDIO
    TITLE "0:"
    INDEX 01 01:13:02
  TRACK 70 AUDIO
    TITLE "14:cjc020_4713"
    INDEX 01 01:13:06
  TRACK 71 AUDIO
    TITLE "0:"
    INDEX 01 01:15:27
